<mxfile host="app.diagrams.net" modified="2024-08-12T07:23:04.101Z" agent="Mozilla/5.0 (Windows NT 10.0; Win64; x64) AppleWebKit/537.36 (KHTML, like Gecko) Chrome/127.0.0.0 Safari/537.36" version="24.2.5" etag="fkYkK2ccvItHY01aL-kf" type="github">
  <diagram name="第 1 页" id="tlFrfIDammxe6udReN6F">
    <mxGraphModel>
      <root>
        <mxCell id="0" />
        <mxCell id="1" parent="0" />
      </root>
    </mxGraphModel>
  </diagram>
</mxfile>
